<?xml version="1.0" encoding="UTF-8"?>
<svg id="Layer_2" data-name="Layer 2" xmlns="http://www.w3.org/2000/svg" viewBox="0 0 457 444.97">
  <defs>
    <style>
      .cls-1 {
        fill: #fff;
      }

      .cls-2 {
        fill: #7fb78a;
      }
    </style>
  </defs>
  <path class="cls-2" d="m0,220.84C0,92.5,108.66,0,233.64,0s223.36,97.44,223.36,225.78c0,136.79-89.56,219.19-214.54,219.19-7.8,0-15.9.03-24.13-.05H0v-224.08Z"/>
  <g>
    <path class="cls-1" d="m206.41,86.41c-7.82,0-15.78.8-23.89,2.44-21.64,4.38-41.19,12.86-54.47,31.71-1.77,2.51-3.27,4.48-5.74,4.48-.99,0-2.14-.32-3.53-1.05-2.77-1.45-6.33-1.39-9.51-2.11-3.36-.76-6.58-1.13-9.64-1.13-14.75,0-25.83,8.64-30.91,24.47-6.5,20.26-7.12,40.75-2.45,61.39,4.67,20.64,11.76,40.93,10.39,62.69-.2,3.17,3.56,5,5.91,2.87s4.76-4.91,7.06-8.93c5.67-9.66,6.47-12.39,10.3-22.81,1.3-3.55,2.73-7.16,4.19-10.81,1.75-4.35,8.02-3.96,9.23.57.11.41.22.82.33,1.23,4.13,15.09,12.89,27.01,28.99,31.69,6.6,1.92,10.62,3.11,17.2,5.06,3.7,1.23,6.16,3.7,7.72,7.95,1.87,7.48.72,14.57-3.03,21.16-2.18,3.83-5.45,7.15-7.04,11.18-5.5,13.99-17.94,48.1-24.19,65.31-1.99,5.49-8,8.64-13.53,6.75s-8.58-8.09-6.55-13.67c6.24-17.2,18.84-51.76,24.51-66.18,1.93-4.9,4.64-8.66,6.62-11.41.66-.92,1.42-1.97,1.72-2.5.09-.16.17-.31.25-.46-2.96-.87-5.87-1.72-9.61-2.81-6.73-1.96-14.36-5.31-21.5-11.05-2.3-1.85-5.71-1.16-7.2,1.39-.01.02-.02.04-.03.06-7.16,12.47-15.88,17.97-20.08,20.61-.22.14-.44.27-.64.4l-30.84,19.83c-3.5,2.25-8.01-.7-7.36-4.8l5.74-36.21c2.46-15.54-1.56-31.44-5.82-48.27-1.16-4.59-2.37-9.34-3.46-14.16-5.58-24.67-4.6-49.08,2.94-72.57,7.88-24.56,26.99-39.22,51.13-39.22,4.64,0,9.46.56,14.29,1.65.26.05,1,.15,1.54.23.18.02.36.05.55.08,14.54-16.94,35.01-27.91,62.28-33.44,9.38-1.9,18.83-2.86,28.1-2.86,25.91,0,51.38,7.46,75.69,22.19,6.72,4.07,26.57,16.09,30.26,41.08.14.26.29.53.45.82,9.65,18.15,12.25,36.63,7.73,54.92-2.13,8.62-1.09,10.19-.48,11.13.83,1.27,2.09,2.72,3.62,4.18,7.4,7.07,10.85,14.93,10.26,23.36-.26,3.71-1.41,8.49-4.86,13.29.9,4.33.32,8.02-.36,10.4-.36,1.26-.71,2.68-1.08,4.19-1.3,5.26-2.92,11.8-6.46,18.2-.7,1.27-1.39,2.39-1.92,3.26-.05,18.76-13.07,33.9-31.86,36.52-7.91,1.1-15.87,1.55-23.05,1.79-.23,1.23-.41,2.28-.49,3.04,1.23,1.96,4.3,5.87,6.62,8.84,10.49,13.39,15.93,27.77,21.19,41.68.25.66.5,1.32.75,1.97,2,5.26-.21,11.37-5.32,13.74-5.63,2.61-12.23-.12-14.41-5.86-.24-.64-.49-1.29-.73-1.93-4.89-12.93-9.61-25.54-18.19-36.49-13.1-16.72-12.93-16.86-8.46-37.71,1.58-7.38,2.97-8.12,10.37-8.29,9.61-.22,19.29-.48,28.79-1.8,8.93-1.25,14.09-8.16,13.52-16.92-.33-5.01,2.42-8.15,4.61-12.11,2.97-5.38,3.99-11.85,5.7-17.89.16-.56-.6-1.51-1.12-2.13-4.05-4.81-3.35-8.48,1.86-12.22,5.18-3.72,4.77-6.99-.03-11.57-2.48-2.37-4.82-5.02-6.7-7.88-5.78-8.8-4.78-18.18-2.39-27.87,3.45-13.97.83-27.27-5.87-39.87-.95-1.79-2.3-3.64-2.46-5.54-1.12-13.62-9.76-21.66-20.49-28.16-20.42-12.36-41.95-19.12-64.69-19.12"/>
    <g>
      <path class="cls-1" d="m427.37,276.78c8.21-35.36-4.52-70.78-30.06-93.21-5.21-4.57-13.25-3.56-17.13,2.19h0c-3.25,4.82-2.39,11.27,1.97,15.1,19.39,17.01,29.05,43.89,22.82,70.71-5.2,22.36-20.32,39.88-39.63,48.98-5.11,2.41-7.63,8.23-6.02,13.64h0c2.02,6.75,9.58,10.11,15.95,7.09,25.39-12.03,45.26-35.09,52.1-64.51Z"/>
      <path class="cls-1" d="m371.64,236.13c3.59,7.14,5.05,15.23,4.17,23.17-1.65,14.88-10.64,26.72-22.66,32.86-3.2,1.64-4.84,5.27-3.81,8.72h0c1.32,4.39,6.29,6.54,10.38,4.46,15.98-8.11,28.03-23.68,30.6-43.28,1.51-11.49-.61-23.25-6.01-33.51-3.2-6.08-7.36-11.4-12.26-15.82-3.32-3-8.53-2.36-11.03,1.35v.02c-2.09,3.07-1.52,7.16,1.23,9.65,3.79,3.44,6.98,7.6,9.39,12.38Z"/>
      <path class="cls-1" d="m346.2,276.22c-.29.18-.59.36-.89.53-1.61.9-2.33,2.84-1.81,4.61h0c.73,2.44,3.53,3.63,5.75,2.38.4-.22.8-.46,1.19-.7,8.04-5.01,13.28-13.27,14.36-22.87.62-5.5-.3-11.12-2.63-16.14-2.09-4.5-5.1-8.31-8.78-11.25-1.75-1.4-4.35-.96-5.6.9l-.13.19c-1.15,1.71-.75,3.97.85,5.27,2.58,2.09,4.7,4.76,6.22,7.89,1.8,3.73,2.55,7.91,2.13,12.03-.74,7.21-4.64,13.42-10.65,17.17Z"/>
    </g>
  </g>
</svg>