<?xml version="1.0" encoding="UTF-8"?>
<svg id="Layer_2" data-name="Layer 2" xmlns="http://www.w3.org/2000/svg" viewBox="0 0 457 444.97">
  <defs>
    <style>
      .cls-1 {
        fill: #fff;
      }

      .cls-2 {
        fill: #7fb78a;
      }
    </style>
  </defs>
  <path class="cls-2" d="m0,220.84C0,92.5,108.66,0,233.64,0s223.36,97.44,223.36,225.78c0,136.79-89.56,219.19-214.54,219.19-7.8,0-15.9.03-24.13-.05H0v-224.08Z"/>
  <g>
    <g id="kflVxc">
      <path class="cls-1" d="m167.73,60.21c3.32,0,6.89.59,10.24.59.23,0,.46,0,.69,0l26.1,5.24c.89-1.47,3.25-2.5,5.14-2.83.34-.06.79-.08,1.34-.08,5.43,0,19.94,2.59,19.94,2.59,0,0,3.5.68,6.6.68,1.44,0,2.8-.15,3.68-.58,2.21-1.1,4.31-1.71,6.32-1.71,1.72,0,3.38.45,4.99,1.42,4.78,2.9,9.44,6.23,13.44,10.11,2.36,2.29,4.54,3.57,7.59,3.57.21,0,.43,0,.65-.02.5-.03,1.01-.05,1.52-.05,1.16,0,2.33.09,3.44.33,6.84,1.48,8.5,4.64,5.98,11.06-4.55,11.58-7.15,14.86-17.78,22.46,4.88,12.17,9.91,24.26,14.49,36.52,1.07,2.86,1.62,6.65.65,9.39-2.02,5.66-1.18,10.5,2,15.13,4.81,7,9.97,13.76,14.72,20.8,4.74,7.03,1.47,14.16-6.86,15.5-7.58,1.22-9.83,5.32-5.77,12.15,2.94,4.96,2.55,8.34-2.8,11.22,2.46,4.1.97,7.03-2.12,10.04-1.37,1.33-1.89,4.09-1.83,6.18.06,2.42,1.23,4.8,1.83,7.22,2.9,11.67-2.98,19.4-15.03,20.62-8.74.89-17.59,1.79-26.04,4.03-10.32,2.74-13.62,9.11-10.71,19.47,1.9,6.76,1.11,12.01-4.59,16.39-3.28,2.53-3.86,5.02.39,7.59,3.84,2.32,7.44,5.08,10.9,7.94,7.56,6.24,12.83,13.28,9.26,24.08-.98,2.97-.09,6.6.1,9.91.4,7.09,1.09,18.31,1.6,26.42.34,5.52,5.1,9.71,10.61,9.36h0c5.51-.35,9.69-5.09,9.35-10.6-.51-8.1-1.2-19.3-1.59-26.31-.08-1.45-.23-2.78-.35-3.85-.03-.24-.06-.52-.09-.78,2.52-9.11,1.85-18.19-1.97-26.36-3.85-8.26-10.1-13.93-14.38-17.45h0c1.62-4.81,2.26-10.61.99-17.5,5.77-1.15,12-1.79,18.51-2.45,11.85-1.2,21.66-6.53,27.62-15.01,5.88-8.35,7.58-19.12,4.8-30.33-.06-.24-.12-.47-.18-.69,2.41-3.82,3.57-7.56,3.97-11.02,1.31-2.19,2.13-4.31,2.64-6.15.84-3.05,1.11-6.14.79-9.26,4.77-3.11,8.53-7.44,10.78-12.63,4.04-9.31,2.84-19.86-3.28-28.93-2.76-4.09-5.6-8.03-8.35-11.84-1.94-2.69-3.79-5.25-5.58-7.83,2.63-9.17.03-17.96-1.28-21.46-2.97-7.95-6.13-15.85-9.25-23.56,5.34-5.61,8.71-11.67,12.42-21.1,3.5-8.91,3.35-17.02-.45-24.13-3.81-7.12-10.51-11.76-19.91-13.79-1.85-.4-3.74-.64-5.75-.74-4.22-3.79-9.08-7.33-14.76-10.77-4.73-2.87-9.9-4.32-15.35-4.32-3.79,0-7.64.73-11.48,2.17-.47-.06-.94-.13-1.32-.2l-.2-.04h-.08c-4.89-.88-16.95-2.91-23.45-2.91-1.72,0-3.26.12-4.72.37-1.84.31-3.62.8-5.33,1.43l-18.59-3.73-2.21-.44-2.25.06h-.17c-.82,0-2.1-.11-3.44-.22-2.01-.17-4.29-.37-6.8-.37h0c-5.19,0-9.72.87-13.84,2.67-13.24,5.78-27.87,13.62-38.07,28.11-5.87,2.17-11.34,5.46-16.33,9.82-5.77,5.05-10.19,10.9-13.76,15.96-7.25,10.27-12.03,21.96-14.22,34.73-1.79,10.41-1.92,21.7-.42,34.49.55,4.67,2.31,8.27,3.25,10.21l.17.34,2.84,5.89c4.21,8.73,8.57,17.77,12.98,26.65,2.44,4.91,5.14,9.25,7.75,13.45,3.92,6.3,7.3,11.75,8.53,17.11,1.19,5.17,2.83,10.07,4.43,14.59.55,1.56,1.19,2.93,1.8,4.08-.35,4.08-.86,8.23-1.41,12.52-1.73,1.49-3.27,3.22-4.59,5.15-3.03,4.42-4.17,8.77-4.93,11.64-.11.42-.26.99-.33,1.22-4.18,11.28-27.15,69.4-39.1,97.54-2.13,5.01.15,10.8,5.12,13.02h0c5.11,2.29,11.11-.06,13.29-5.22,12.13-28.6,35.28-87.15,39.47-98.48,1.66-4.5,1.48-10.61,8.4-11.54.63-.08,1.36-1.88,1.49-2.94,1.1-8.72,2.36-17.44,2.87-26.2.14-2.41-2.33-4.89-3.24-7.46-1.44-4.08-2.83-8.2-3.8-12.41-3.03-13.18-12.03-23.27-17.86-34.99-5.34-10.73-10.51-21.54-15.72-32.33-.65-1.34-1.4-2.75-1.57-4.19-2.31-19.65-.68-38.63,11.12-55.36,6.38-9.04,13.44-17.53,25.29-19.84,1.04-.2,2.07-1.57,2.69-2.64,7.24-12.56,19.36-19.16,31.83-24.61,1.76-.77,3.75-1,5.84-1"/>
    </g>
    <g>
      <path class="cls-1" d="m407.37,276.43c8.21-35.36-4.52-70.78-30.06-93.21-5.21-4.58-13.25-3.56-17.14,2.19h0c-3.25,4.81-2.39,11.27,1.97,15.1,19.38,17.01,29.05,43.88,22.82,70.71-5.2,22.36-20.32,39.88-39.63,48.98-5.11,2.41-7.63,8.23-6.02,13.64h0c2.02,6.75,9.58,10.11,15.95,7.09,25.39-12.03,45.26-35.09,52.1-64.51Z"/>
      <path class="cls-1" d="m351.64,235.78c3.59,7.14,5.05,15.23,4.17,23.17-1.65,14.88-10.64,26.72-22.66,32.86-3.2,1.64-4.84,5.27-3.81,8.72h0c1.32,4.39,6.29,6.54,10.38,4.46,15.98-8.11,28.03-23.68,30.6-43.28,1.51-11.49-.61-23.25-6.01-33.51-3.2-6.08-7.36-11.39-12.26-15.81-3.32-3-8.54-2.36-11.05,1.35h0c-2.08,3.07-1.51,7.17,1.24,9.66,3.79,3.44,6.98,7.6,9.38,12.38Z"/>
      <path class="cls-1" d="m326.2,275.87c-.29.18-.59.36-.89.53-1.61.9-2.34,2.84-1.81,4.61h0c.73,2.44,3.53,3.63,5.75,2.38.4-.22.8-.46,1.19-.7,8.04-5.01,13.28-13.27,14.36-22.87.62-5.5-.3-11.12-2.63-16.14-2.09-4.5-5.1-8.31-8.78-11.25-1.75-1.4-4.35-.96-5.61.91l-.13.19c-1.15,1.71-.75,3.97.85,5.27,2.58,2.09,4.7,4.76,6.22,7.89,1.8,3.73,2.55,7.91,2.13,12.03-.74,7.21-4.64,13.42-10.65,17.17Z"/>
    </g>
  </g>
</svg>