<?xml version="1.0" encoding="UTF-8"?>
<svg id="Layer_1" data-name="Layer 1" xmlns="http://www.w3.org/2000/svg" viewBox="0 0 2362.22 426.45">
  <defs>
    <style>
      .cls-1 {
        font-family: FONTSPRINGDEMO-MundialLightRegular, 'FONTSPRING DEMO - Mundial Light';
        font-size: 211.11px;
        font-weight: 300;
        stroke-width: 9px;
      }

      .cls-1, .cls-2 {
        stroke: #13736d;
      }

      .cls-1, .cls-2, .cls-3, .cls-4, .cls-5, .cls-6, .cls-7, .cls-8, .cls-9, .cls-10, .cls-11, .cls-12 {
        isolation: isolate;
      }

      .cls-1, .cls-2, .cls-13 {
        stroke-miterlimit: 10;
      }

      .cls-1, .cls-3, .cls-4, .cls-5, .cls-6, .cls-7, .cls-8, .cls-9, .cls-11, .cls-12 {
        fill: #13736d;
      }

      .cls-2 {
        stroke-width: 4px;
      }

      .cls-2, .cls-13 {
        fill: none;
      }

      .cls-2, .cls-11 {
        font-family: ProximaNova-Semibold, 'Proxima Nova';
        font-size: 200.44px;
        font-weight: 600;
      }

      .cls-3 {
        letter-spacing: 0em;
      }

      .cls-3, .cls-4, .cls-5, .cls-6, .cls-7, .cls-8, .cls-9, .cls-12 {
        font-family: CyText-Bold, 'Cy Text';
        font-size: 186.29px;
        font-weight: 700;
      }

      .cls-4 {
        letter-spacing: 0em;
      }

      .cls-5 {
        letter-spacing: -.01em;
      }

      .cls-14 {
        fill: #fd9a6e;
      }

      .cls-15 {
        fill: #7fb78a;
      }

      .cls-16 {
        fill: #13736c;
      }

      .cls-6 {
        letter-spacing: -.03em;
      }

      .cls-7 {
        letter-spacing: -.02em;
      }

      .cls-13 {
        stroke: #f9f5f1;
        stroke-linecap: round;
        stroke-width: 10px;
      }

      .cls-9 {
        letter-spacing: -.05em;
      }

      .cls-12 {
        letter-spacing: 0em;
      }
    </style>
  </defs>
  <g id="Layer_1-2" data-name="Layer 1">
    <g>
      <g class="cls-10">
        <text class="cls-1" transform="translate(1548 228.45) scale(.97 1)"><tspan x="0" y="0">Th</tspan></text>
      </g>
      <g class="cls-10">
        <text class="cls-8" transform="translate(1786.07 228.45)"><tspan x="0" y="0">e</tspan></text>
      </g>
      <g class="cls-10">
        <text class="cls-4" transform="translate(1896.47 228.45)"><tspan x="0" y="0">r</tspan></text>
        <text class="cls-1" transform="translate(1974.79 228.45) scale(.97 1)"><tspan x="0" y="0">a</tspan></text>
        <text class="cls-1" transform="translate(2076.91 228.45) scale(.97 1)"><tspan x="0" y="0">p</tspan></text>
      </g>
      <g class="cls-10">
        <text class="cls-11" transform="translate(2202.33 228.45) scale(1.06 1)"><tspan x="0" y="0">y</tspan></text>
        <text class="cls-2" transform="translate(2202.33 228.45) scale(1.06 1)"><tspan x="0" y="0">y</tspan></text>
      </g>
      <g>
        <g class="cls-10">
          <text class="cls-5" transform="translate(408.58 222.42)"><tspan x="0" y="0">H</tspan></text>
          <text class="cls-12" transform="translate(544.95 222.42)"><tspan x="0" y="0">o</tspan></text>
        </g>
        <g class="cls-10">
          <text class="cls-8" transform="translate(658.61 222.42) scale(1.03 1)"><tspan x="0" y="0">m</tspan></text>
        </g>
        <g class="cls-10">
          <text class="cls-8" transform="translate(828.23 222.42)"><tspan x="0" y="0">e</tspan></text>
          <text class="cls-7" transform="translate(940.94 222.42)"><tspan x="0" y="0">B</tspan></text>
          <text class="cls-3" transform="translate(1058.3 222.42)"><tspan x="0" y="0">r</tspan></text>
          <text class="cls-9" transform="translate(1131.89 222.42)"><tspan x="0" y="0">i</tspan></text>
          <text class="cls-6" transform="translate(1175.11 222.42)"><tspan x="0" y="0">d</tspan></text>
          <text class="cls-8" transform="translate(1293.03 222.42)"><tspan x="0" y="0">g</tspan></text>
          <text class="cls-8" transform="translate(1397.54 222.42)"><tspan x="0" y="0">e</tspan></text>
        </g>
      </g>
    </g>
  </g>
  <g id="Layer_2" data-name="Layer 2">
    <g id="Layer_3" data-name="Layer 3">
      <g>
        <path class="cls-15" d="m129.02,205.97c0-38.94,36.97-67,79.5-67s76,29.56,76,68.5c0,41.5-30.47,66.5-73,66.5-2.65,0-5.41,0-8.21-.02v19.57h-74.29v-87.55h0Z"/>
        <path class="cls-16" d="m374.65,184.1c-24.3-21.5-122.27-108.19-156.5-138.47-6.24-5.52-15.62-5.52-21.86,0-34.21,30.27-132.09,116.88-156.46,138.44-1.85,1.62-2.99,4.03-2.9,6.7.15,4.63,4.15,8.21,8.78,8.21h13.21v170h21.8v-20.1c0-14.28,11.13-26.39,25.4-26.89,14.78-.52,26.93,11.32,26.93,25.98v21h26.46v-13.7c0-26.6,21.08-48.85,47.67-49.29s49.33,21.43,49.33,48.49v14.5h25v-20.46c0-14.17,11.11-26.14,25.27-26.53,14.69-.4,26.73,11.39,26.73,25.99v21h22v-170h13.22c4.62,0,8.61-3.57,8.78-8.19.09-2.66-1.03-5.06-2.87-6.68h.01Zm-41.13,99.16c-34.73-8.34-78.04-13.29-125-13.29s-92.45,5.2-127.6,13.92v-99.44c3.94-3.49,16.29-14.42,32.24-28.53,29.12-25.77,70.23-62.15,94.06-83.24,36.89,32.64,115.16,101.91,126.3,111.78v98.81h0Z"/>
        <path class="cls-13" d="m160.52,210.92s19.03-18.23,43.66-.8c27.47,19.44,47.57-3.04,47.57-3.04"/>
      </g>
    </g>
  </g>
  <path class="cls-14" d="m1344.98,346.14v-57.3s33.52,0,33.52,0v8.68s-24.5,0-24.5,0v15.23s21.62,0,21.62,0v8.51s-21.62,0-21.62,0v16.21s24.73,0,24.73,0v8.68s-33.75,0-33.75,0Z"/>
  <g class="cls-10">
    <path class="cls-14" d="m1430.92,333.62c1.94,2.05,5.68,5.48,12.99,5.48,5.68,0,9.41-2.05,9.41-7.04,0-3.77-2.18-6.14-8.48-9.09l-4.9-2.29c-7.08-3.36-13.22-6.55-13.22-16.7,0-11.38,8.4-15.8,17.11-15.8,9.1,0,15.32,4.83,17.42,6.63l-4.74,7.29c-1.63-1.47-6.53-5.4-12.68-5.4-3.66,0-7.15,1.39-7.15,6.22,0,4.26,2.72,6.63,7.31,8.76l4.98,2.29c5.76,2.62,14.23,6.14,14.23,17.44,0,10.48-7.7,16.37-19.29,16.37-10.34,0-15.94-4.75-18.51-7.12l5.52-7.04Z"/>
  </g>
  <g class="cls-10">
    <path class="cls-14" d="m1482.64,346.47v-57.3s33.52,0,33.52,0v8.68s-24.5,0-24.5,0v15.23s21.62,0,21.62,0v8.51s-21.62,0-21.62,0v16.21s24.73,0,24.73,0v8.68s-33.75,0-33.75,0Z"/>
    <path class="cls-14" d="m1540.19,346.47v-57.3s19.21,0,19.21,0c3.73,0,7.02.77,9.88,2.29,2.85,1.53,5.08,3.64,6.69,6.34,1.61,2.7,2.41,5.83,2.41,9.37,0,3.55-.84,6.69-2.53,9.41-1.69,2.73-4,4.87-6.96,6.43-2.95,1.56-6.3,2.33-10.03,2.33h-9.64s0,21.12,0,21.12h-9.02Zm9.02-29.88h10.58c1.76,0,3.33-.41,4.7-1.23,1.37-.82,2.49-1.94,3.34-3.36.86-1.42,1.28-3.03,1.28-4.83,0-2.73-.93-4.97-2.8-6.71-1.87-1.75-4.28-2.62-7.23-2.62h-9.88s0,18.75,0,18.75Zm21.15,29.88l-12.75-23.25,7-5.08,15.94,28.32h-10.19Z"/>
  </g>
  <g>
    <path class="cls-14" d="m1646.26,290.21l-22.11,56.4h-6.02l-21.77-57.56h10.18l14.61,40.69h1.4l14.8-40.69h9.31"/>
    <polygon class="cls-14" points="1666.87 345.62 1666.78 289.06 1677.21 289.06 1677.3 345.62 1666.87 345.62"/>
  </g>
  <path class="cls-14" d="m1722.56,288.74c1.44,0,2.98.14,4.56.42,1.57.28,3.13.73,4.64,1.34,1.49.6,2.95,1.41,4.34,2.42.96.7,1.85,1.51,2.68,2.43l-6.81,5.85c-1.11-1.11-2.4-2-3.83-2.68-1.96-.92-4.23-1.39-6.75-1.39s-4.9.52-7.07,1.56c-2.15,1.03-4.04,2.48-5.61,4.32-1.56,1.82-2.79,4-3.66,6.48-.86,2.46-1.3,5.16-1.3,8.01s.44,5.63,1.3,8.06c.87,2.45,2.08,4.61,3.61,6.42,1.54,1.84,3.39,3.29,5.49,4.32,2.12,1.04,4.42,1.57,6.85,1.57,2.78,0,5.28-.63,7.45-1.86,1.63-.93,3.05-2.14,4.25-3.63l7.42,5.83c-1.99,2.53-4.42,4.46-7.23,5.74-3.34,1.53-6.81,2.3-10.34,2.3-4.07,0-7.86-.68-11.28-2.01-3.39-1.33-6.36-3.25-8.83-5.72-2.47-2.47-4.42-5.51-5.8-9.04-1.39-3.55-2.1-7.58-2.1-11.99s.71-8.44,2.1-11.99c1.38-3.53,3.34-6.57,5.8-9.04,2.47-2.47,5.44-4.39,8.83-5.72,3.41-1.33,7.21-2.01,11.28-2.01"/>
  <g class="cls-10">
    <path class="cls-14" d="m1764.49,346.47v-57.3s33.52,0,33.52,0v8.68s-24.5,0-24.5,0v15.23s21.62,0,21.62,0v8.51s-21.62,0-21.62,0v16.21s24.73,0,24.73,0v8.68s-33.75,0-33.75,0Z"/>
  </g>
  <g class="cls-10">
    <path class="cls-14" d="m1825.22,333.62c1.94,2.05,5.68,5.48,12.99,5.48,5.68,0,9.41-2.05,9.41-7.04,0-3.77-2.18-6.14-8.48-9.09l-4.9-2.29c-7.08-3.36-13.22-6.55-13.22-16.7,0-11.38,8.4-15.8,17.11-15.8,9.1,0,15.32,4.83,17.42,6.63l-4.74,7.29c-1.63-1.47-6.53-5.4-12.68-5.4-3.65,0-7.15,1.39-7.15,6.22,0,4.26,2.72,6.63,7.31,8.76l4.98,2.29c5.76,2.62,14.23,6.14,14.23,17.44,0,10.48-7.7,16.37-19.29,16.37-10.34,0-15.94-4.75-18.51-7.12l5.52-7.04Z"/>
  </g>
  <path class="cls-14" d="m829.82,348.76c-3.16,0-5.96-.65-8.4-1.96-2.44-1.31-4.36-3.11-5.75-5.4-1.4-2.29-2.1-4.91-2.1-7.86,0-2.18.4-4.19,1.2-6.02.8-1.83,1.88-3.51,3.23-5.03,1.35-1.53,2.88-2.89,4.59-4.09l8.94-6.47c1.04-.76,2.1-1.58,3.19-2.46,1.09-.87,2.03-1.88,2.84-3.03.8-1.15,1.2-2.46,1.2-3.93,0-1.8-.61-3.22-1.83-4.26-1.22-1.04-2.76-1.55-4.63-1.55-1.66,0-3.07.55-4.24,1.64-1.17,1.09-1.75,2.46-1.75,4.09,0,1.47.44,2.78,1.32,3.93.88,1.15,1.92,2.51,3.11,4.09l10.03,12.69,19.21,24.48h-10.34s-15.4-19.4-15.4-19.4l-10.27-13.1c-1.35-1.8-2.49-3.4-3.42-4.79-.93-1.39-1.62-2.73-2.06-4.01-.44-1.28-.66-2.61-.66-3.97,0-2.51.63-4.76,1.91-6.75,1.27-1.99,2.97-3.56,5.09-4.71,2.12-1.15,4.51-1.72,7.15-1.72,2.9,0,5.48.57,7.74,1.72,2.26,1.15,4.03,2.73,5.33,4.75,1.3,2.02,1.94,4.37,1.94,7.04,0,2.18-.54,4.23-1.63,6.14-1.09,1.91-2.63,3.77-4.63,5.57-2,1.8-4.34,3.71-7.04,5.73l-5.6,4.01c-.99.71-1.89,1.5-2.72,2.37-.83.87-1.5,1.86-2.02,2.95-.52,1.09-.78,2.4-.78,3.93,0,2.18.71,3.97,2.14,5.36,1.43,1.39,3.28,2.09,5.56,2.09s4.68-.41,6.88-1.23c2.2-.82,4.17-2.01,5.91-3.56,1.74-1.55,3.1-3.45,4.08-5.69.98-2.24,1.48-4.78,1.48-7.61h8.32c0,5.02-1.17,9.5-3.5,13.43-2.33,3.93-5.54,7.01-9.6,9.25-4.07,2.24-8.75,3.36-14.04,3.36Z"/>
  <path class="cls-14" d="m897.13,347.62v-57.3s9.02,0,9.02,0v48.63s24.65,0,24.65,0v8.68s-33.67,0-33.67,0Z"/>
  <path class="cls-14" d="m943.48,347.62l21.7-57.3h9.1s-21.23,57.3-21.23,57.3h-9.57Zm10.19-14.08v-8.43s32.58,0,32.58,0v8.43s-32.58,0-32.58,0Zm33.29,14.08l-21.23-57.3h9.02s21.78,57.3,21.78,57.3h-9.57Z"/>
  <path class="cls-14" d="m1014.48,347.62v-57.3s9.33,0,9.33,0l28.93,41.42v-41.42s9.02,0,9.02,0v57.3s-9.02,0-9.02,0l-29.24-41.91v41.91s-9.02,0-9.02,0Z"/>
  <path class="cls-14" d="m1110.52,348.6c-5.5,0-10.38-1.27-14.66-3.81-4.28-2.54-7.63-6.03-10.07-10.48-2.44-4.45-3.65-9.54-3.65-15.27,0-5.84,1.22-10.98,3.65-15.43,2.44-4.45,5.79-7.94,10.07-10.48,4.28-2.54,9.16-3.81,14.66-3.81,3.16,0,6.13.52,8.9,1.56,2.77,1.04,5.28,2.44,7.5,4.22,2.23,1.77,4.04,3.83,5.44,6.18l-7.31,4.91c-.99-1.58-2.26-3-3.81-4.26-1.55-1.25-3.25-2.22-5.09-2.91-1.84-.68-3.72-1.02-5.64-1.02-3.73,0-7.04.9-9.92,2.7-2.88,1.8-5.15,4.27-6.81,7.41-1.66,3.14-2.49,6.78-2.49,10.93s.82,7.64,2.45,10.81c1.63,3.17,3.91,5.65,6.84,7.45,2.93,1.8,6.31,2.7,10.15,2.7,3.01,0,5.7-.66,8.09-1.96,2.38-1.31,4.26-3.14,5.64-5.49,1.37-2.35,2.06-5.05,2.06-8.1l8.63-1.15c0,5.19-1.05,9.67-3.15,13.47-2.1,3.79-5,6.71-8.71,8.76-3.71,2.05-7.97,3.07-12.79,3.07Zm2.96-23.41v-7.7s21.7,0,21.7,0v6.39s-4.82,1.31-4.82,1.31h-16.88Z"/>
  <path class="cls-14" d="m1175.54,348.76c-4.3,0-8.08-.91-11.32-2.74-3.24-1.83-5.75-4.41-7.54-7.74-1.79-3.33-2.68-7.2-2.68-11.62v-36.35s9.02,0,9.02,0v36.35c0,2.67.53,5.01,1.59,7,1.06,1.99,2.55,3.55,4.47,4.67,1.92,1.12,4.12,1.68,6.61,1.68s4.78-.56,6.73-1.68c1.94-1.12,3.43-2.67,4.47-4.67,1.04-1.99,1.55-4.32,1.55-7v-36.35s9.02,0,9.02,0v36.35c0,4.42-.9,8.3-2.68,11.62-1.79,3.33-4.33,5.91-7.62,7.74-3.29,1.83-7.17,2.74-11.63,2.74Z"/>
  <path class="cls-14" d="m1214.73,347.62l21.7-57.3h9.1s-21.23,57.3-21.23,57.3h-9.57Zm10.19-14.08v-8.43s32.58,0,32.58,0v8.43s-32.58,0-32.58,0Zm33.29,14.08l-21.23-57.3h9.02s21.78,57.3,21.78,57.3h-9.57Z"/>
  <path class="cls-14" d="m1308.13,348.6c-5.5,0-10.38-1.27-14.66-3.81-4.28-2.54-7.63-6.03-10.07-10.48-2.44-4.45-3.65-9.54-3.65-15.27s1.22-10.98,3.65-15.43c2.44-4.45,5.79-7.94,10.07-10.48,4.28-2.54,9.16-3.81,14.66-3.81,3.16,0,6.13.52,8.9,1.56,2.77,1.04,5.28,2.44,7.5,4.22,2.23,1.77,4.04,3.83,5.44,6.18l-7.31,4.91c-.99-1.58-2.26-3-3.81-4.26-1.55-1.25-3.25-2.22-5.09-2.91-1.84-.68-3.72-1.02-5.64-1.02-3.73,0-7.04.9-9.92,2.7-2.88,1.8-5.15,4.27-6.81,7.41-1.66,3.14-2.49,6.78-2.49,10.93,0,4.04.82,7.64,2.45,10.81,1.63,3.17,3.91,5.65,6.84,7.45,2.93,1.8,6.31,2.7,10.15,2.7,3.01,0,5.7-.66,8.09-1.96,2.38-1.31,4.26-3.14,5.64-5.49,1.37-2.35,2.06-5.05,2.06-8.1l8.63-1.15c0,5.19-1.05,9.67-3.15,13.47-2.1,3.79-5,6.71-8.71,8.76-3.71,2.05-7.97,3.07-12.79,3.07Zm2.96-23.41v-7.7s21.7,0,21.7,0v6.39s-4.82,1.31-4.82,1.31h-16.88Z"/>
  <g>
    <path class="cls-14" d="m485.39,346.15v-57.3s19.21,0,19.21,0c3.73,0,7.02.79,9.88,2.37s5.08,3.78,6.69,6.59c1.61,2.81,2.41,6.07,2.41,9.78s-.75,6.82-2.26,9.66c-1.5,2.84-3.59,5.06-6.26,6.67-2.67,1.61-5.77,2.42-9.29,2.42h-11.35s0,19.81,0,19.81h-9.02Zm9.02-28.57h11.2c2.59,0,4.72-.93,6.38-2.78,1.66-1.85,2.49-4.26,2.49-7.2s-.93-5.43-2.8-7.29c-1.87-1.85-4.28-2.78-7.23-2.78h-10.03s0,20.06,0,20.06Z"/>
    <path class="cls-14" d="m542.47,346.15v-57.3s33.52,0,33.52,0v8.68s-24.5,0-24.5,0v15.23s21.62,0,21.62,0v8.51s-21.62,0-21.62,0v16.21s24.73,0,24.73,0v8.68s-33.75,0-33.75,0Z"/>
    <path class="cls-14" d="m599.24,346.15v-57.3s33.52,0,33.52,0v8.68s-24.5,0-24.5,0v15.23s21.62,0,21.62,0v8.51s-21.62,0-21.62,0v16.21s24.73,0,24.73,0v8.68s-33.75,0-33.75,0Z"/>
    <path class="cls-14" d="m679.57,347.13c-5.24,0-9.89-1.27-13.96-3.81-4.07-2.54-7.26-6.03-9.57-10.48-2.31-4.45-3.46-9.56-3.46-15.35s1.15-10.9,3.46-15.35c2.31-4.45,5.48-7.94,9.53-10.48,4.04-2.54,8.68-3.81,13.92-3.81,3.52,0,6.84.67,9.95,2.01s5.87,3.18,8.28,5.53c2.41,2.35,4.26,5.08,5.56,8.19l-8.24,3.52c-.93-2.07-2.19-3.91-3.77-5.53-1.58-1.61-3.38-2.85-5.41-3.73-2.02-.87-4.15-1.31-6.38-1.31-3.42,0-6.47.9-9.14,2.7-2.67,1.8-4.77,4.27-6.3,7.41-1.53,3.14-2.29,6.75-2.29,10.85,0,4.09.76,7.72,2.29,10.89,1.53,3.17,3.65,5.65,6.38,7.45,2.72,1.8,5.82,2.7,9.29,2.7,2.28,0,4.42-.48,6.42-1.43,2-.96,3.78-2.28,5.37-3.97,1.58-1.69,2.84-3.66,3.77-5.89l8.24,3.52c-1.3,3.22-3.14,6.07-5.52,8.56-2.39,2.48-5.16,4.41-8.32,5.77-3.16,1.36-6.53,2.05-10.11,2.05Z"/>
    <path class="cls-14" d="m723.12,346.15v-57.3s9.02,0,9.02,0v57.3s-9.02,0-9.02,0Zm7.08-25.05v-8.68s32.97,0,32.97,0v8.68s-32.97,0-32.97,0Zm29.32,25.05v-57.3s9.02,0,9.02,0v57.3s-9.02,0-9.02,0Z"/>
    <path class="cls-14" d="m432.5,333.29c1.94,2.05,5.68,5.49,12.99,5.49,5.68,0,9.41-2.05,9.41-7.04,0-3.77-2.18-6.14-8.48-9.09l-4.9-2.29c-7.08-3.36-13.22-6.55-13.22-16.7,0-11.38,8.4-15.8,17.11-15.8,9.1,0,15.32,4.83,17.42,6.63l-4.74,7.29c-1.63-1.47-6.53-5.4-12.68-5.4-3.65,0-7.15,1.39-7.15,6.22,0,4.26,2.72,6.63,7.31,8.76l4.98,2.29c5.76,2.62,14.23,6.14,14.23,17.44,0,10.48-7.7,16.37-19.29,16.37-10.34,0-15.94-4.75-18.51-7.12l5.52-7.04Z"/>
  </g>
</svg>