<?xml version="1.0" encoding="UTF-8"?>
<svg id="Layer_2" data-name="Layer 2" xmlns="http://www.w3.org/2000/svg" viewBox="0 0 457 444.97">
  <defs>
    <style>
      .cls-1 {
        fill: #fff;
      }

      .cls-2 {
        fill: #7fb78a;
      }
    </style>
  </defs>
  <path class="cls-2" d="m0,220.84C0,92.5,108.66,0,233.64,0s223.36,97.44,223.36,225.78c0,136.79-89.56,219.19-214.54,219.19-7.8,0-15.9.03-24.13-.05H0v-224.08Z"/>
  <g>
    <g>
      <path class="cls-1" d="m163.63,85.19c24.32,0,48.19,7.86,67.2,22.12,28.25,21.21,42.7,57.85,37.7,95.61-.12.92-.25,1.86-.4,2.79-.82,5.25-5.29,9.06-10.61,9.06-.53,0-1.12-.05-1.75-.14-5.81-.96-9.8-6.5-8.88-12.38l.09-.59c.08-.52.15-1.05.22-1.56,3.98-30.07-7.24-59.02-29.28-75.57-15.29-11.48-34.55-17.8-54.25-17.82-2.17,0-4.34.08-6.46.24-16.92,1.23-41.45,7.92-62.27,32.82-21.54,25.76-23.65,56.88-23.56,69.06.05,5.46-4,10.09-9.42,10.78-.45.06-.91.09-1.37.09-5.87,0-10.69-4.77-10.74-10.63-.19-18.04,3.28-52.82,28.58-83.1,25.65-30.68,56.14-38.95,77.21-40.48,2.62-.2,5.31-.3,7.99-.3h0Z"/>
      <path class="cls-1" d="m232.61,249.8h0c1.98,0,3.92.55,5.61,1.59,2.51,1.54,4.25,3.97,4.88,6.85.64,2.88.09,5.82-1.54,8.28-2.05,3.09-3.49,5.25-4.3,6.41-4.17,6.03-8.1,11.73-10.87,16.83-14.7,27.06-15.92,34.78-15.65,62.15.21,21.83-12.08,39.61-32.07,46.4-5.51,1.88-11.46,2.83-17.68,2.83-8.82,0-17.78-1.87-26.65-5.56-13.91-5.8-27.54-16.2-39.41-30.1-1.93-2.25-2.85-5.24-2.53-8.19.32-2.95,1.86-5.66,4.21-7.43,1.88-1.42,4.12-2.17,6.49-2.17,3.13,0,6.1,1.36,8.14,3.72,15.36,17.76,33.81,28.36,49.33,28.36,3.84,0,7.6-.62,11.16-1.84,11.23-3.81,17.6-13.22,17.48-25.82-.3-30.61,1.82-42.35,18.25-72.63,3.26-6.01,7.43-12.05,11.84-18.46l.24-.34c.75-1.08,2.12-3.13,4.08-6.08,2-3.01,5.35-4.81,8.97-4.81h0Z"/>
    </g>
    <path class="cls-1" d="m155.48,322.5c-3.57,3.36-9.22,2.99-12.36-.76-31.95-38.13-49.79-94.1-48.12-126.75.98-19.13,10.01-37.49,24.78-50.39,14.16-12.36,32.31-18.3,51.11-16.72,19.39,1.63,35.46,11.44,46.48,28.37,3.31,5.08,5.68,10.09,7.34,14.27,2.16,5.46-1.14,11.55-6.9,12.72l-6.48,1.32,8.36-1.7h0c-4.5.93-9.04-1.5-10.7-5.8-4.23-10.95-15.07-30.11-39.53-32.17-18.14-1.53-30.92,5.99-38.45,12.57-11.14,9.73-18.23,24.08-18.96,38.4-1.32,25.69,13.32,78.24,44.11,114.87,2.92,3.48,2.67,8.61-.64,11.72l-.05.04Z"/>
    <path class="cls-1" d="m154.12,279.2c-3.8.3-6.98-2.89-6.61-6.68,1.6-16.63,13.91-24.27,24.04-30.56,3.04-1.88,5.91-3.66,8.43-5.6,7.38-5.66,11.22-14.86,9.34-22.39-.89-3.56-3.46-8.05-10.68-9.25-12.05-2.01-19.98-6.56-23.57-13.51-.04-.08-.08-.16-.12-.24-3.19-6.4,5.36-12.12,10.16-6.81.51.56.89,1.05,1.09,1.42,1.7,3.14,6.85,5.57,14.5,6.85,10.68,1.78,18.23,8.54,20.72,18.53,3.09,12.39-2.48,26.58-13.86,35.3-3.01,2.31-6.28,4.34-9.44,6.3-10.33,6.41-17.17,11.19-18.19,21.01-.31,3-2.64,5.38-5.64,5.62h-.17Z"/>
    <path class="cls-1" d="m301.89,296.41l-12.19-67.07c-.38-2.06-3.33-2.08-3.73-.02l-1.24,6.46c-.27,1.42-1.52,2.45-2.97,2.45h-63.04c-3.3,0-5.98-2.68-5.98-5.98h0c0-3.3,2.68-5.98,5.98-5.98h53.17c1.45,0,2.7-1.03,2.97-2.45l8.42-43.79c1.02-5.32,8.65-5.28,9.61.05l13.45,73.97c.4,2.19,3.54,2.19,3.93,0l14.55-81.35c.97-5.41,8.75-5.36,9.64.07l11.13,67.76c.29,1.74,2.6,2.14,3.45.6l1.81-3.25c1.31-2.35,3.78-3.8,6.46-3.8h60.7c3.3,0,5.98,2.68,5.98,5.98h0c0,3.3-2.68,5.98-5.98,5.98h-55.18c-1.76,0-3.37.95-4.23,2.49l-14,25.13c-1.45,2.61-5.38,1.92-5.87-1.02l-6.91-42.06c-.48-2.94-4.7-2.97-5.22-.04l-11.78,65.85c-1.29,7.22-11.64,7.24-12.96.02Z"/>
  </g>
</svg>