<?xml version="1.0" encoding="UTF-8"?>
<svg id="Layer_2" data-name="Layer 2" xmlns="http://www.w3.org/2000/svg" xmlns:xlink="http://www.w3.org/1999/xlink" viewBox="0 0 455.54 444.97">
  <defs>
    <style>
      .cls-1, .cls-2, .cls-3, .cls-4 {
        fill: none;
      }

      .cls-5 {
        clip-path: url(#clippath);
      }

      .cls-2 {
        stroke-width: 7.06px;
      }

      .cls-2, .cls-3, .cls-4 {
        stroke: #fff;
        stroke-miterlimit: 10;
      }

      .cls-6 {
        fill: #fff;
      }

      .cls-7 {
        fill: #7fb78a;
      }

      .cls-3 {
        stroke-width: 12.97px;
      }

      .cls-8 {
        clip-path: url(#clippath-1);
      }

      .cls-4 {
        stroke-width: 20.24px;
      }
    </style>
    <clipPath id="clippath">
      <path class="cls-1" d="m-1.46,220.84C-1.46,92.5,107.2,0,232.18,0s223.36,97.44,223.36,225.78c0,136.79-89.56,219.19-214.54,219.19-7.8,0-15.9.03-24.13-.05H-1.46v-224.08Z"/>
    </clipPath>
    <clipPath id="clippath-1">
      <polygon class="cls-1" points="286.72 103.87 171.11 274.87 224.01 451.58 297.57 306.05 286.72 103.87"/>
    </clipPath>
  </defs>
  <path class="cls-7" d="m-1.46,220.84C-1.46,92.5,107.2,0,232.18,0s223.36,97.44,223.36,225.78c0,136.79-89.56,219.19-214.54,219.19-7.8,0-15.9.03-24.13-.05H-1.46v-224.08Z"/>
  <g class="cls-5">
    <g>
      <g class="cls-8">
        <g>
          <path class="cls-4" d="m187.5,205.32c39.64,9.21,64.31,48.81,55.1,88.45-9.21,39.64-48.81,64.31-88.45,55.1"/>
          <path class="cls-3" d="m180.23,234.51c23.33,5.42,37.85,28.73,32.43,52.06s-28.73,37.85-52.06,32.43"/>
          <path class="cls-2" d="m175.76,255.54c12.7,2.95,20.6,15.64,17.65,28.33s-15.64,20.6-28.33,17.65"/>
        </g>
      </g>
      <g id="bsg4Wd">
        <path class="cls-6" d="m489.94,453.3c-4.29-23.75-12.53-47.86-25.64-75.16-6.47-13.46-11.97-27.49-17.29-41.06-2.1-5.35-4.27-10.89-6.46-16.29-.86-2.11-1.23-4.11-1.58-6.04-.14-.75-.28-1.54-.48-2.41l-2.62-11.68,11.87,1.6c12.16,1.64,17.74-4.52,25-18.07,3.95-7.37,8.96-17.11,12.65-27.12,2.2-5.96,3.12-12.81,3.94-19.89.64-5.48,2.73-12.92,13.58-14.38,5.14-.69,10.04-2.09,14.19-4.04,10.24-4.82,14.01-16.15,8.97-26.94-1.97-4.21-3.38-8.49-4.74-12.62-.81-2.47-1.58-4.8-2.45-7.06-.55-1.44-1.06-2.88-1.55-4.27-1.39-3.95-2.71-7.67-4.61-10.4-3.04-4.36-6.14-6.81-7.74-7.25-13.43-3.65-23.23-3.67-31.76-.07-4.79,2.03-12.11,3.96-20.24-2.6-12.56-10.14-27.99-16.39-47.17-19.08-9.45-1.33-17.59.02-24.89,4.12-2.56,1.44-10.22,5.74-19.32,1.84l-.32-.05c-10.06-1.65-28.56,11.14-30.46,21.05-.03.17-.12.56-.27,1.12-1.67,6.21-1.11,8.43-1.01,8.75.12.21.24.4.36.59,1.45,2.4,4.48,7.41,1.09,14.22-7.08,14.24-9.58,25.91-8.11,37.85.67,5.43-1.14,11.7-5.38,18.63-2.97,4.85-6.45,9.17-9.82,13.34-1.32,1.64-2.57,3.19-3.79,4.77-1.66,2.15-2.11,3.37-2.22,3.84.33.37,1.33,1.27,3.95,2.43,5.18,2.3,9.27,4.11,11.02,8.79,1.6,4.28.13,7.99-1.8,12.16l.05.22c5.8,5.2,2.34,10.8,1.91,11.43-.26.39-.09,1.22.83,4.02,1.21,3.69,2.88,8.74.95,14.6-1.31,3.97-1.16,5.61-1.08,6.03.38.27,2.05,1.22,7.22,1.69,4.61.42,8.78,1.69,12.81,2.92,1.45.44,2.82.86,4.17,1.23,1.71.46,3.28,1.02,4.8,1.57,2.07.74,4.2,1.51,5.53,1.51h0c9.92-.04,16.43,5.12,19.3,15.29.92,3.25,1.85,6.5,2.78,9.74,1.85,6.43,3.76,13.08,5.51,19.71.91,3.44.59,7.51-.86,11.18l-.4,1c-1.82,4.61-3.71,9.38-6.57,13.91-9.81,15.5-15.96,32.46-22.47,50.42-.55,1.52-1.11,3.06-1.67,4.6-1.59,4.36-6.43,6.58-10.76,4.95h0c-4.28-1.61-6.46-6.36-4.9-10.66.56-1.54,1.11-3.07,1.66-4.58,6.53-18,13.28-36.62,24.05-53.65,2.03-3.2,3.54-7.05,5.15-11.12l.4-1.02c.13-.32.19-.74.19-.96-1.68-6.39-3.56-12.9-5.37-19.19-.94-3.28-1.89-6.55-2.81-9.84-.85-3.02-1.17-3.14-2.96-3.14-.1,0-.2,0-.3,0-4.23,0-7.91-1.32-11.16-2.48-1.26-.45-2.46-.88-3.52-1.17-1.61-.44-3.18-.91-4.69-1.38-3.37-1.03-6.55-2-9.46-2.26-6.24-.57-15.07-2.13-19.66-9.13-4.48-6.82-2.6-14.91-.79-20.4.22-.65-.43-2.61-.95-4.19-.98-2.97-2.41-7.34-1.48-12.2-.29-.53-.55-1.11-.75-1.74-.07-.23-.15-.46-.23-.7-.96-2.9-2.41-7.29-.34-11.73l.06-.14c-.07-.03-.15-.07-.22-.1-7.46-3.31-11.97-7.87-13.41-13.56-1.43-5.66.34-11.76,5.26-18.13,1.33-1.72,2.69-3.41,4.01-5.04,3.17-3.94,6.17-7.65,8.58-11.58,2.65-4.33,3.16-7.06,3.06-7.89-1.81-14.75,1.06-29.37,9.04-45.91-.09-.15-.19-.31-.28-.47-2.95-5.05-3.16-12.04-.64-21.39l.05-.17c3.79-18.78,30.49-37.24,49.49-34.12l.23.03c.84.12,2.24.33,3.81,1.07.76.36,1.63.77,4.74-.98,10.45-5.88,22.36-7.93,35.37-6.1,22.26,3.13,40.35,10.53,55.32,22.62.87.7,1.27.83,1.27.84.05,0,.55,0,2-.62,15.82-6.69,31.9-3.58,42.63-.67,7.57,2.06,13.44,8.64,17.04,13.8,3.2,4.59,5.03,9.79,6.66,14.39.46,1.3.92,2.6,1.4,3.87,1,2.62,1.87,5.24,2.7,7.78,1.27,3.84,2.47,7.47,4.02,10.79,4.23,9.07,4.91,19.03,1.9,28.06-3.09,9.27-9.79,16.74-18.87,21.01-5.46,2.57-11.78,4.42-18.32,5.37-.94,8.09-2.02,15.98-4.85,23.63-4.05,10.97-9.39,21.38-13.6,29.22-4.67,8.71-12.65,23.6-29.77,26.59,1.65,4.13,3.28,8.28,4.87,12.33,5.21,13.28,10.6,27.02,16.8,39.93,13.78,28.68,22.46,54.15,27.01,79.39.84,4.65-2.34,9.06-7.02,9.74h0c-4.44.64-8.59-2.34-9.38-6.76Zm-175.34-172.22h0Zm-.15-128.77v-.08s0,.05,0,.08Z"/>
      </g>
      <path class="cls-6" d="m106.49,458.72c-4.8.77-9.31-2.5-10.08-7.3-2.68-16.66-5.05-30.91-7.35-44.29-1.81-10.54-3.51-17.75-10.45-21.89-5.65-3.37-6.57-11.69-4.75-16.17,4.64-11.39,9.55-22.55,13.75-31.96,4.85-10.87,13.78-17.3,25.82-18.59,5.47-.59,10.74-1.7,15.67-3.31,5.48-1.79,6.2-3.23,6.23-3.29.12-.25.2-1.44-.79-3.87-.67-1.62-2.06-5-1.56-8.81.46-3.51,1.32-7.53,4.25-10.69.2-.21.39-.42.58-.61-1.06-3.61.21-7.52,2.24-10.34-.62-1-1.18-1.99-1.73-2.96-.34-.6-.68-1.21-1.05-1.84l-4.46-7.57,7.56-4.47c1.5-.89,2.92-1.73,4.29-2.55,2.81-1.67,5.48-3.26,8.15-4.8-2.79-4.91-5.5-9.9-8.12-14.74-1.81-3.33-3.61-6.67-5.45-9.98-4.11-7.41-4.94-15.57-2.53-24.96.96-3.73,1.13-7.34.47-9.43-2.81-8.81-6.57-18.12-11.51-28.47-4.85-10.17-1.79-17.43,1.63-21.72,3.23-4.06,4.23-8.09-.21-16.7-.16-.31-.36-.69-.56-1.08-.56.16-1.09.32-1.47.43-4.22,1.25-12.09,3.58-16.85-1.96-2.68-3.12-5.15-4.21-11.91-1.94-3.23,1.09-6.12.46-7.84.09-.23-.05-.46-.11-.69-.14-15.37-1.07-54.6-2-59.14-1.91-1.59.23-3.19.45-4.78.67-5.44.75-10.58,1.47-15.62,2.56-17.65,3.83-26.39,10.4-30.15,22.66-1.3,4.24-4.73,8.07-10.19,11.4-11.9,7.26-16.21,12.86-16.45,21.37-.02.67.04,1.53.09,2.44.12,1.95.28,4.38-.16,7.01-3.26,19.62.5,39.36,11.48,60.36,5.25,10.04,9.53,19.91,12.71,29.32,2.4,7.1,4.93,12.2,10.11,15.63,8.31,5.5,11.13,14.44,7.53,23.9-1.68,4.41-3.43,8.93-5.35,13.81-2.03,5.16-5.14,8.56-9.25,10.13-2.33.89-5.91,1.49-10.4-.12-3.46,7.57-7.11,15.15-10.65,22.49-7.82,16.23-15.9,33.01-22.02,49.94-3.02,8.34-6.06,17.33-9.22,27.28-1.47,4.61-6.37,7.18-10.99,5.75h0c-4.67-1.44-7.27-6.41-5.79-11.06,3.24-10.18,6.35-19.39,9.45-27.96,6.43-17.77,14.71-34.96,22.71-51.59,3.71-7.71,7.55-15.67,11.12-23.53,2.15-4.74,5.22-7.84,9.11-9.21,2.25-.79,5.7-1.3,9.98.33,1.73-4.39,3.31-8.5,4.84-12.51.74-1.96.39-2.19-.8-2.98-9.91-6.56-14.19-16.15-17.07-24.66-2.89-8.55-6.81-17.57-11.64-26.81-12.82-24.52-17.15-47.88-13.24-71.41.11-.64.03-1.84-.04-3.01-.08-1.21-.16-2.57-.12-4.05.52-18.58,12.87-28.58,24.87-35.9,1.53-.93,2.36-1.68,2.68-2.04,7.59-23.9,28.2-30.97,43.09-34.2,5.69-1.24,11.41-2.03,16.94-2.79,1.69-.23,3.39-.47,5.08-.72,3.49-.51,50.16.97,62.57,1.84,1.18.08,2.21.3,2.99.47,5.22-1.66,16.47-4.33,26.52,4.57.41-.11.9-.25,1.47-.42,4.94-1.46,9.21-2.73,13.77-.82,4.58,1.91,6.58,5.79,8.9,10.27,10.54,20.42,1.35,31.95-1.67,35.74-.3.38-.64.81.49,3.18,5.29,11.08,9.34,21.12,12.4,30.7,2.16,6.79,1.09,14.16-.19,19.15-1.3,5.09-1.05,8.58.87,12.05,1.87,3.37,3.7,6.75,5.53,10.13,2.68,4.95,5.46,10.06,8.27,14.99,5.16,9.04,2.72,17.9-6.38,23.13-1.68.97-3.38,1.97-5.12,3,2.29,4.4,2.88,9.85-.77,14.63.66,2.76.26,5.15-.36,6.93-1.12,3.18-3.22,5.19-4.75,6.66-.12.12-.24.23-.36.35-.04.17-.08.4-.13.72.06.16.15.38.27.67,2.75,6.68,2.91,12.71.5,17.94-3.5,7.58-11.23,10.85-16.74,12.65-6.1,1.99-12.57,3.36-19.26,4.08-5.84.63-9.32,3.1-11.62,8.26-3.77,8.45-8.12,18.31-12.29,28.42,11.11,8.75,13.34,21.72,15.01,31.44,2.31,13.44,4.68,27.75,7.38,44.47.77,4.8-2.49,9.33-7.3,10.1h0Zm-140.84-117.78h0ZM29.07,120.85s-.09.01-.14.02c.06,0,.1-.02.14-.02Z"/>
    </g>
    <path class="cls-6" d="m421.05,255.32l-9.84-54.13c-.3-1.67-2.69-1.68-3.01-.02l-1,5.21c-.22,1.15-1.23,1.98-2.4,1.98h-50.88c-2.66,0-4.82-2.16-4.82-4.82h0c0-2.66,2.16-4.82,4.82-4.82h42.91c1.17,0,2.18-.83,2.4-1.98l6.8-35.34c.83-4.29,6.98-4.26,7.76.04l10.86,59.71c.32,1.77,2.86,1.76,3.17,0l11.74-65.66c.78-4.37,7.06-4.32,7.78.06l8.98,54.69c.23,1.4,2.1,1.73,2.79.49l1.46-2.62c1.05-1.89,3.05-3.07,5.22-3.07h48.99c2.66,0,4.82,2.16,4.82,4.82h0c0,2.66-2.16,4.82-4.82,4.82h-44.54c-1.42,0-2.72.77-3.41,2.01l-11.3,20.28c-1.17,2.11-4.35,1.55-4.74-.83l-5.58-33.95c-.39-2.37-3.79-2.39-4.21-.03l-9.51,53.15c-1.04,5.83-9.4,5.84-10.46.02Z"/>
  </g>
</svg>