<?xml version="1.0" encoding="UTF-8"?>
<svg id="Layer_2" data-name="Layer 2" xmlns="http://www.w3.org/2000/svg" viewBox="0 0 457 444.97">
  <defs>
    <style>
      .cls-1 {
        fill: #fff;
      }

      .cls-2 {
        fill: #7fb78a;
      }
    </style>
  </defs>
  <path class="cls-2" d="m0,220.84C0,92.5,108.66,0,233.64,0s223.36,97.44,223.36,225.78c0,136.79-89.56,219.19-214.54,219.19-7.8,0-15.9.03-24.13-.05H0v-224.08Z"/>
  <g>
    <path class="cls-1" d="m282.71,365.82c-5.66,0-10.73-.79-14.73-1.57-19.78-3.87-39.82-8.06-59.19-12.1l-12.62-2.63c-6.67-1.39-13.37.13-21.38,2.83-4.95,1.67-9.85,3.62-15.03,5.67-2.37.94-4.76,1.89-7.2,2.83h0c-4.8,1.85-10.18-.69-11.79-5.58l-18.41-55.93c-1.58-4.81,1.11-9.98,5.96-11.44h0c1.97-.59,3.92-1.17,5.86-1.75,4.35-1.29,8.47-2.52,12.63-3.81,12.92-4,23.99-9.27,33.87-16.09,13.66-9.44,28.82-13.57,45.05-12.25,5.9.48,12.1,1.83,19.5,4.26,5.4,1.77,10.77,3.74,15.96,5.63,7.82,2.86,15.21,5.56,22.82,7.71,4.04,1.14,8.58,1.58,13.38,2.03,3.69.35,7.51.71,11.39,1.43,6.54,1.21,14.21,2.86,21.41,5.99,1.84.8,3.49,1.84,4.92,3.08,2.01-1.57,4.02-3.13,6.04-4.69,7.35-5.71,14.96-11.61,22.16-17.61,10.78-8.99,23.62-12.42,39.24-10.48,6.29.78,11.12,3.98,13.24,8.78,2.06,4.66,1.27,10.12-2.16,14.97-10.17,14.37-19.48,27.25-28.47,39.37-7.63,10.28-18.15,18.56-32.16,25.29-2.02.97-4.04,1.95-6.06,2.92-15.16,7.33-30.84,14.91-47.43,20.48-5.86,1.97-11.59,2.64-16.81,2.64Zm-91.76-34.84c2.89,0,5.85.27,8.9.91l12.63,2.63c19.32,4.04,39.3,8.21,58.97,12.06,9.16,1.79,16.06,1.65,22.35-.47,15.51-5.21,29.99-12.21,45.32-19.62,2.03-.98,4.06-1.96,6.1-2.94,11.47-5.51,19.58-11.8,25.5-19.79,6.72-9.06,13.62-18.55,20.94-28.79,1.87-2.61-.41-6.16-3.57-5.57-4.98.92-9.32,3-13.25,6.27-7.45,6.21-15.18,12.21-22.66,18.01-3.33,2.59-6.66,5.17-9.98,7.78-1.83,11.79-11.32,16.69-19.32,18.73-13.95,3.54-27.16,1.03-35.88-1.17-12.77-3.22-23.52-5.04-34.46-3.51-2.78.39-5.54.68-8.21.97-1.19.13-2.38.25-3.57.39h0c-4.7.53-9.02-2.68-9.85-7.34l-.1-.55c-.85-4.7,2.13-9.24,6.78-10.33h0c.81-.19,1.62-.39,2.42-.59,1.89-.46,3.84-.94,5.88-1.35,14-2.76,24.95-3,35.5-.79,7.97,1.68,17.25,3.56,26.47,4.77,6.3.82,10.91.17,14.51-2.06.61-.38.78-.77.82-.96-.04-.02-.1-.05-.18-.09-5.54-2.41-11.96-3.77-17.5-4.8-3.1-.57-6.37-.88-9.83-1.21-5.39-.51-10.96-1.04-16.58-2.63-8.26-2.34-16.31-5.28-24.1-8.13-5.05-1.85-10.27-3.76-15.38-5.43-5.94-1.95-10.96-3.07-15.35-3.42-11.98-.98-23.2,2.09-33.36,9.11-11.4,7.88-24.08,13.93-38.77,18.48-.33.1-.67.21-1,.31-4.82,1.48-7.49,6.63-5.91,11.42l6.69,20.32c1.59,4.83,6.87,7.41,11.63,5.64,1.82-.67,3.65-1.33,5.48-1.95,6.82-2.3,14.09-4.3,21.91-4.3Z"/>
    <path class="cls-1" d="m58.69,405.71l-27.15-82.51c-1.22-3.7.74-7.7,4.41-9.02l6.62-2.37c4.93-1.77,9.79-3.5,14.64-5.24l9.13-3.26c10.51-3.75,21.02-7.51,31.54-11.23,1.98-.7,6.62-2.35,11.31-.05,4.68,2.3,6.23,6.98,6.89,8.98,7.57,22.96,15.14,45.92,22.68,68.89,2.93,8.92-.07,15.06-8.94,18.23l-56.89,20.38c-.67.24-1.34.47-2.12.73l-2.95,1.01c-3.79,1.3-7.91-.75-9.16-4.55Zm-4.57-71.47l15.91,48.36c1.26,3.84,5.45,5.89,9.25,4.52l34.72-12.43c3.67-1.31,5.62-5.31,4.41-9.02-5.3-16.11-10.6-32.21-15.91-48.31-1.26-3.83-5.44-5.88-9.24-4.53-6.96,2.48-13.91,4.96-20.87,7.45l-9.13,3.26c-1.57.56-3.15,1.12-4.72,1.69-3.67,1.31-5.63,5.31-4.41,9.02Zm44.56-28.37s0,0,0,0t0,0Z"/>
    <g>
      <path class="cls-1" d="m306.02,184.91c-.44,0-.89,0-1.32-.02l.41-14.99c.41.01.82.01,1.23.01l.1,7.5v-7.5c.26,0,.52,0,.79-.01h.11c19.47-.46,37.18-11.32,46.21-28.35,4.04-7.59,6.07-15.82,6.06-24.44-.03-14.49-5.62-28.01-15.75-38.05-10.13-10.04-23.72-15.53-38.16-15.43-14.09.09-27.29,5.67-37.19,15.71-10.07,10.22-15.56,23.84-15.44,38.35.07,8.31,2.07,16.26,5.93,23.63l-13.29,6.96c-4.91-9.37-7.56-19.91-7.65-30.47-.15-18.53,6.86-35.93,19.75-49,12.71-12.9,29.68-20.06,47.78-20.18,18.47-.14,35.84,6.91,48.82,19.78,12.98,12.88,20.15,30.16,20.19,48.68.02,10.96-2.68,21.86-7.81,31.51-11.56,21.79-34.18,35.7-59.05,36.3-.42.01-.83.02-1.25.02-.15,0-.31,0-.46,0Z"/>
      <path class="cls-1" d="m329.88,95.43c-9.1,9.4-18,18.6-26.96,27.86-2.73,2.82-7.26,2.81-9.98-.03-3.4-3.55-6.77-7.07-10.15-10.6-2.64-2.76-7.01-2.85-9.78-.22-.04.03-.07.07-.11.1-2.77,2.64-2.87,7.03-.22,9.8,6.8,7.11,13.49,14.11,20.21,21.14,2.72,2.84,7.26,2.85,9.99.02,12.5-12.94,24.84-25.71,37.05-38.35,2.53-2.62,2.6-6.76.14-9.46l-.09-.1c-2.69-2.96-7.32-3.03-10.1-.16Z"/>
    </g>
    <path class="cls-1" d="m326.91,253.07l-17.29-45.03c-1.58-4.12.48-8.75,4.6-10.34h0c4.12-1.58,8.75.48,10.34,4.6l5.32,13.85c.99,2.58,4.54,2.85,5.91.45,2.23-3.9,4.31-7.57,5.74-10.19,3.35-6.16,9.17-8.22,15.58-5.5,1.54.65,3.31,1.2,5.18,1.79.91.28,1.81.57,2.71.87.78.26,1.64.54,2.56.85,2.63.87,5.09-1.7,4.09-4.29l-7.74-20.15c-1.58-4.12.48-8.75,4.6-10.34h0c4.12-1.58,8.75.48,10.34,4.6l19.84,51.67c.99,2.58-1.46,5.16-4.09,4.29l-9.46-3.12s-17.04-5.63-25.18-8.32c-.82-.27-1.63-.53-2.45-.78-1.14-.36-2.3-.72-3.48-1.12-5.62,10.08-15.8,27.44-16.27,28.25l-4.96,8.46c-1.39,2.37-4.9,2.08-5.89-.48Z"/>
    <path class="cls-1" d="m284.32,253.07c-.99,2.57-4.5,2.85-5.89.48l-4.96-8.46c-.47-.81-10.65-18.17-16.26-28.25-1.19.41-2.36.78-3.51,1.13-.81.25-1.61.5-2.42.77-8.14,2.69-25.18,8.32-25.18,8.32l-9.46,3.12c-2.63.87-5.08-1.71-4.09-4.29l19.84-51.67c1.58-4.12,6.21-6.18,10.34-4.6h0c4.12,1.58,6.18,6.21,4.6,10.34l-7.74,20.15c-.99,2.58,1.47,5.16,4.09,4.29.92-.31,1.79-.59,2.57-.85.89-.29,1.78-.57,2.67-.85,1.88-.59,3.66-1.14,5.24-1.81,6.38-2.7,12.2-.64,15.56,5.51,1.43,2.62,3.5,6.3,5.73,10.19,1.37,2.4,4.92,2.13,5.91-.45l5.02-13.07c1.58-4.12,6.21-6.18,10.34-4.6h0c4.12,1.58,6.18,6.21,4.6,10.34l-17,44.25Z"/>
    <path class="cls-1" d="m304.76,184.9c-24.82-.45-47.45-14.49-59.06-36.63l13.28-6.97c9.06,17.29,26.71,28.24,46.05,28.6l-.27,15Z"/>
  </g>
</svg>