<?xml version="1.0" encoding="UTF-8"?>
<svg id="Layer_2" data-name="Layer 2" xmlns="http://www.w3.org/2000/svg" viewBox="0 0 457 444.97">
  <defs>
    <style>
      .cls-1 {
        fill: #fff;
      }

      .cls-2 {
        fill: #7fb78a;
      }
    </style>
  </defs>
  <path class="cls-2" d="m0,220.84C0,92.5,108.66,0,233.64,0s223.36,97.44,223.36,225.78c0,136.79-89.56,219.19-214.54,219.19-7.8,0-15.9.03-24.13-.05H0v-224.08Z"/>
  <path class="cls-1" d="m363.57,352.58v15.74c0,9.72-7.88,17.6-17.6,17.6H44.6c-9.72,0-17.6-7.88-17.6-17.6v-15.74c0-2.88,2.34-5.22,5.22-5.22h11.29c1.97,0,3.57-1.6,3.57-3.57v-170.68c0-9.79,7.94-17.73,17.73-17.73h35.79c5.75,0,10.76,4.7,10.76,10.45,0,2.88-1.17,5.49-3.06,7.38-1.89,1.89-4.5,3.06-7.38,3.06h-27.03c-3.27,0-5.92,2.65-5.92,5.92v161.6c0,1.97,1.6,3.57,3.57,3.57h246.69c1.97,0,3.57-1.6,3.57-3.57v-58.77c0-5.75,4.7-10.76,10.45-10.76,2.88,0,5.49,1.17,7.38,3.06,1.89,1.89,3.06,4.5,3.06,7.38v59.08c0,1.97,1.6,3.57,3.57,3.57h12.09c2.88,0,5.22,2.34,5.22,5.22Z"/>
  <path class="cls-1" d="m363.22,79.96h-66.06c-9.65,0-17.5,7.85-17.5,17.5v149.63c0,9.65,7.85,17.5,17.5,17.5h66.06c9.65,0,17.5-7.85,17.5-17.5V97.45c0-9.65-7.85-17.5-17.5-17.5Zm6.34,167.13c0,3.49-2.86,6.35-6.35,6.35h-66.05c-3.5,0-6.34-2.84-6.34-6.34V97.45c0-3.5,2.84-6.34,6.34-6.34h66.06c3.5,0,6.34,2.84,6.34,6.34v149.63Z"/>
  <path class="cls-1" d="m355.14,205.05c2.59,0,4.64-2.25,4.34-4.83-.22-1.97-.55-3.92-.98-5.86-.74-3.33-2.5-5.87-5.54-7.47-1.3-.69-2.6-1.39-3.95-2-1.33-.6-9.27-4.11-9.27-4.11-.91-.6-1.46-1.48-1.52-2.59-.07-1.34-.13-2.69-.07-4.03.03-.61.21-1.3.56-1.78,1.79-2.49,2.91-5.17,2.9-8.28,0-.32.18-.76.43-.94,1.79-1.33,2.22-3.23,2.35-5.27.07-1.18.37-2.5-1.31-2.72.25-1.3.57-2.51.71-3.73.14-1.23.15-2.48.12-3.72-.05-2.08-.59-4.04-1.66-5.83-1.07-1.8-2.66-2.77-4.74-2.97-.39-.04-.8-.03-1.15-.17-1.98-.83-4.07-1.01-6.16-1.09-4.41-.18-8.1,1.29-10.71,4.97-2.11,2.97-2.2,6.33-1.6,9.76.17.95.47,1.88.74,2.89-.81-.04-1.4.23-1.47,1.06-.17,2.02-.17,4.16,1.27,5.65,1.24,1.28,1.66,2.63,1.69,4.26,0,.21.06.41.09.61.33,2.2,1.59,3.96,2.76,5.76.2.31.38.7.39,1.05.05,1.24.02,2.49.01,3.73-.01,1.51-.55,2.74-1.84,3.65,0,0-10.65,4.36-13.49,6.12-2.64,1.64-4.35,3.91-4.86,6.97-.32,1.93-.61,3.96-.88,5.99-.35,2.61,1.69,4.93,4.33,4.93h48.51Z"/>
  <path class="cls-1" d="m285.7,288.31c-.18-13.45-5.87-24.67-16.46-32.44-4.06-2.97-28.83-14.11-39.31-18.77.01-1.45,0-2.87-.02-4.3v-.09c1.07-.83,2.11-1.71,3.1-2.63.01,0,.02-.02.03-.03.38-.36.76-.72,1.12-1.1.19-.18.37-.36.54-.55.47-.48.93-.97,1.38-1.47,5.41-6.1,9.23-13.68,11-21.98.38-.18.75-.36,1.12-.56,11.47-5.92,18.86-17.6,18.85-30.52,0-2.14.01-4.27.02-6.4.02-4.53.04-12.21-.03-16.86-.28-18.64-6.87-34.81-19.58-48.06-16.78-17.49-37.54-24.88-61.69-21.98-15.69,1.89-30.6,9.3-41.98,20.86-11.42,11.6-18.56,26.65-20.08,42.37-.63,6.52-.62,15.96-.6,22.18.01,2.05.01,4.09-.01,6.13-.13,14.88,7.17,26.66,20.19,32.89,2.83,10.92,8.5,20.14,16.89,27.49,0,.19-.01.39-.01.58-.02,1.25-.05,2.6-.01,4.02-3.52,1.47-11.03,4.82-28.74,12.91l-2.11.96c-16.07,7.49-24.62,20.83-24.72,38.59-.03,5.16-.04,13.55-.03,24.58,0,5.51,4.48,10,9.99,10h.02c5.52,0,9.99-4.5,9.99-10.02-.01-10.98,0-19.33.03-24.44.06-10.02,4.12-16.37,13.1-20.55l2.03-.93c7.72-3.52,25.51-11.64,28.93-12.97,6.52-1.63,10.66-6.22,11.54-12.52,4.96,1.51,10.19,2.32,15.57,2.32,4.87,0,9.62-.66,14.15-1.9.44,5.97,4.29,9.29,8.06,10.55,7.39,3.15,35.66,16.03,39.58,18.44,5.39,4.01,8.06,9.39,8.15,16.46.08,6.65.06,17.16.01,25.54-.03,5.5,4.39,10,9.89,10.05h.01c5.54.06,10.07-4.4,10.1-9.94.05-8.72.07-19.2-.01-25.91Zm-140.16-120.37c-1.34,0-2.42-1.08-2.42-2.42.01-4.17.09-15.61.5-19.79,2.23-23.04,21.38-42.52,44.54-45.3,17.82-2.15,32.5,3.08,44.87,15.97,9.09,9.48,13.81,21.09,14.01,34.51.05,3.05.04,11.49.04,14.62,0,1.33-1.09,2.41-2.42,2.41h-15.56c-.63-.02-1.24-.24-1.73-.65l-17.15-14.56-17.98,14.63c-.48.39-1.07.57-1.7.6-3.19-.02-8.08-.03-11.01-.02h-33.99Zm50.22,57.08c-16.78,0-31.3-12.48-33.77-29.04l-.29-4.82c-.2-8.78,0-11.22,0-11.22h17.86c2.91-.02,7.77,0,10.94.02h.05c3.37,0,6.66-1.17,9.27-3.3l10.24-8.33,9.55,8.11c2.64,2.24,6.01,3.48,9.48,3.49,0,0-.2,11.28-1.15,18.45-1.06,8.02-5.17,15.03-11.28,19.25-.79.55-1.52,1.13-2.17,1.76-5.42,3.57-11.88,5.63-18.73,5.63Z"/>
  <g>
    <path class="cls-1" d="m233.01,230.08c-.99.95-2.03,1.86-3.1,2.72v-.09c1.07-.83,2.11-1.71,3.1-2.63Z"/>
    <path class="cls-1" d="m248.2,204.39c-2.2,8.53-6.44,16.21-12.12,22.54,5.41-6.1,9.23-13.68,11-21.98.38-.18.75-.36,1.12-.56Z"/>
  </g>
</svg>